<?xml version="1.0" encoding="UTF-8" standalone="no"?>
<!-- Generator: Adobe Illustrator 16.0.0, SVG Export Plug-In . SVG Version: 6.00 Build 0)  -->

<svg
   xmlns:osb="http://www.openswatchbook.org/uri/2009/osb"
   xmlns:dc="http://purl.org/dc/elements/1.1/"
   xmlns:cc="http://creativecommons.org/ns#"
   xmlns:rdf="http://www.w3.org/1999/02/22-rdf-syntax-ns#"
   xmlns:svg="http://www.w3.org/2000/svg"
   xmlns="http://www.w3.org/2000/svg"
   xmlns:sodipodi="http://sodipodi.sourceforge.net/DTD/sodipodi-0.dtd"
   xmlns:inkscape="http://www.inkscape.org/namespaces/inkscape"
   version="1.1"
   id="Capa_1"
   x="0px"
   y="0px"
   width="427.792px"
   height="427.792px"
   viewBox="0 0 427.792 427.792"
   style="enable-background:new 0 0 427.792 427.792;"
   xml:space="preserve"
   sodipodi:docname="adotei-logo-square.svg"
   inkscape:version="0.92.5 (2060ec1f9f, 2020-04-08)"><metadata
   id="metadata949"><rdf:RDF><cc:Work
       rdf:about=""><dc:format>image/svg+xml</dc:format><dc:type
         rdf:resource="http://purl.org/dc/dcmitype/StillImage" /><dc:title /></cc:Work></rdf:RDF></metadata><defs
   id="defs947"><linearGradient
     id="linearGradient2464"
     osb:paint="solid"><stop
       style="stop-color:#000000;stop-opacity:1;"
       offset="0"
       id="stop2462" /></linearGradient><clipPath
     id="clip0"><rect
       style="fill:#ffffff"
       y="0"
       x="0"
       id="rect1760"
       height="22"
       width="22" /></clipPath></defs><sodipodi:namedview
   pagecolor="#ffffff"
   bordercolor="#666666"
   borderopacity="1"
   objecttolerance="10"
   gridtolerance="10"
   guidetolerance="10"
   inkscape:pageopacity="0"
   inkscape:pageshadow="2"
   inkscape:window-width="1920"
   inkscape:window-height="1023"
   id="namedview945"
   showgrid="false"
   inkscape:zoom="1.3752311"
   inkscape:cx="258.62859"
   inkscape:cy="113.47677"
   inkscape:window-x="0"
   inkscape:window-y="0"
   inkscape:window-maximized="1"
   inkscape:current-layer="Capa_1" />
<g
   id="g912">
	
<g
   id="g910"
   transform="translate(-10.544355,-37.811827)">
		<path
   d="m 222.58757,55.680678 c -3.91384,0.0403 -7.60102,1.843588 -10.1263,4.981717 L 46.275576,266.55995 l 7.578697,6.11766 7.588928,6.12591 L 222.79158,78.861531 390.49009,278.93533 405.41509,266.41891 232.79951,60.476861 C 230.2205,57.386585 226.467,55.668085 222.58757,55.680678 Z"
   id="path902"
   inkscape:connector-curvature="0"
   style="fill:#000000;fill-opacity:1;stroke-width:0.83952093"
   sodipodi:nodetypes="cccccccccc" />
		<path
   d="m 220.00333,223.46841 c 0.91743,-0.30889 2.08135,-1.81483 2.14143,-2.77 1.34571,-23.03886 -17.67835,-53.7522 -24.52939,-64.00641 -5.51533,2.19843 -10.882,5.75181 -15.83656,11.16701 0,0 -9.89449,6.63998 -13.40474,38.90239 18.50642,23.96707 41.50215,20.04779 51.62926,16.70701 z"
   id="path904"
   inkscape:connector-curvature="0"
   style="stroke-width:0.77029854" />
		<path
   d="m 293.39738,182.5748 -30.31818,-7.40026 c 0,0 -0.86428,-7.31476 -9.46158,-10.32046 -6.26638,-2.19612 -27.85785,-14.60563 -49.10191,-10.22263 8.0319,12.22541 25.89898,42.36026 24.48625,66.46367 -0.21029,3.78987 -3.22293,7.70529 -6.84487,8.90234 -3.48175,1.15853 -9.73042,2.76229 -17.32479,2.76229 -11.00294,0 -24.82287,-3.38392 -37.27321,-16.3935 -0.24418,4.1342 -0.3836,8.60578 -0.40825,13.44402 -0.13943,24.95537 -31.83875,48.61663 -31.83875,48.61663 l -4.22201,8.74982 c 8.61733,18.65817 22.12606,34.60566 38.897,46.1794 0.76028,-11.91883 3.74904,-21.25562 7.21076,-28.27227 6.55601,-13.32694 15.7503,-20.72334 20.44218,-23.85307 1.00909,-27.50582 9.93685,-35.54465 17.38487,-37.38258 2.28779,-0.56694 4.69959,-0.0786 6.59684,1.34571 2.15915,1.61146 3.54799,4.2713 3.68896,7.1268 0.38284,7.39333 4.75274,12.5836 6.82484,14.64492 3.36005,0.31274 6.56757,0.84501 9.58714,1.5768 l 0.27731,-2.5936 2.30781,-22.40952 c 0.39131,-3.78217 3.79064,-6.97044 7.55355,-7.50964 14.28904,-2.08135 46.12548,-10.54539 48.1945,-44.93999 0.23802,-3.79372 -2.96565,-7.60901 -6.65846,-8.51488 z m -47.23548,7.98953 c -2.13912,0 -3.87614,-1.72932 -3.87614,-3.87075 0,-2.14143 1.73702,-3.87075 3.87614,-3.87075 2.14374,0 3.87229,1.72932 3.87229,3.87075 -0.008,2.13758 -1.7324,3.87075 -3.87229,3.87075 z"
   id="path906"
   inkscape:connector-curvature="0"
   style="fill:#000000;fill-opacity:1;stroke-width:0.77029854" />
		<path
   d="m 263.08767,292.97322 c -1.1462,-9.75121 -14.91067,-17.7862 -32.69686,-18.92778 0,0 -9.44386,-7.26006 -10.07782,-19.79205 -0.10399,-1.89725 -1.52211,-3.78294 -3.36389,-3.32846 -4.75274,1.16931 -12.82239,7.27085 -13.22449,35.13717 0,0 -25.84968,13.04115 -27.71765,50.63865 16.56989,9.95534 35.87897,15.79498 56.48907,16.13468 l -0.23109,-5.38593 c -0.0855,-1.89725 1.29102,-3.97782 3.06656,-4.64259 l 22.01822,-8.2576 c 0,0 10.32585,0.57926 14.62103,-7.17302 2.17456,-3.90772 4.19274,-6.63843 5.67941,-8.39779 1.21631,-1.4474 1.19705,-3.51642 -0.16407,-4.83902 -4.49854,-4.34217 -13.54185,-13.87924 -14.39842,-21.16626 z m -13.06118,9.43846 c -2.13527,0 -3.86844,-1.72469 -3.86844,-3.86767 0,-2.14759 1.73317,-3.87614 3.86844,-3.87614 2.14297,0 3.87614,1.72855 3.87614,3.87614 7.7e-4,2.14221 -1.7324,3.86767 -3.87614,3.86767 z"
   id="path908"
   inkscape:connector-curvature="0"
   style="stroke-width:0.77029854" />
	</g>
</g>
<g
   id="g914">
</g>
<g
   id="g916">
</g>
<g
   id="g918">
</g>
<g
   id="g920">
</g>
<g
   id="g922">
</g>
<g
   id="g924">
</g>
<g
   id="g926">
</g>
<g
   id="g928">
</g>
<g
   id="g930">
</g>
<g
   id="g932">
</g>
<g
   id="g934">
</g>
<g
   id="g936">
</g>
<g
   id="g938">
</g>
<g
   id="g940">
</g>
<g
   id="g942">
</g>

<g
   transform="matrix(0.35063769,0,0,0.35063769,34.442478,296.47715)"
   id="g1612"><path
     inkscape:connector-curvature="0"
     d="m 260.61328,23.029297 c -1.94126,-0.06808 -4.27347,0.868299 -6.99805,2.808594 -2.69051,1.906254 -5.51749,4.493853 -8.48046,7.761718 -2.96298,3.267866 -6.11358,7.14731 -9.45118,11.640625 -3.30354,4.459275 -6.52104,9.105724 -9.65429,13.939454 -3.13326,4.799677 -6.23369,9.820287 -9.29883,15.0625 -5.75566,0.272322 -9.28005,-0.271202 -10.57422,-1.632813 -0.4768,-0.510604 -0.61255,-1.191962 -0.4082,-2.042969 0.13623,-0.476563 -0.0684,-0.783761 -0.61328,-0.919922 -0.4768,-0.136161 -0.7837,0.06864 -0.91993,0.613282 -0.30651,1.36161 -0.0517,2.502787 0.76563,3.421875 1.32823,1.463731 4.30951,2.195312 8.94141,2.195312 h 1.83789 c -9.26355,16.032965 -15.34147,28.457007 -18.23633,37.273437 -0.17029,0.44252 -0.001,0.76646 0.50976,0.9707 0.4768,0.17021 0.81714,-10e-4 1.02149,-0.51171 3.13326,-9.46332 9.31543,-22.073347 18.54492,-37.833989 3.0992,-0.204242 8.71776,-0.852118 16.85742,-1.941407 8.85486,-1.225449 14.96807,-1.83789 18.33985,-1.83789 l -1.53126,4.902344 c -4.5296,14.637313 -7.59462,25.393402 -9.19531,32.269532 -1.56663,6.87613 -1.66892,11.23409 -0.30664,13.07226 0.51086,0.68081 1.20827,1.01954 2.09375,1.01954 1.08983,0 2.26528,-0.23828 3.52539,-0.71485 h 0.0508 0.0508 l 0.0508,-0.0508 h 0.0508 c 2.21371,-0.85101 4.56461,-2.43331 7.05078,-4.74805 2.52023,-2.31473 4.73342,-4.68079 6.64062,-7.09765 1.57964,-2.02995 3.1449,-4.23476 4.70118,-6.54492 -0.13531,0.58776 -0.25993,1.17176 -0.35938,1.74609 -0.68114,4.15291 0.17069,6.75725 2.55469,7.8125 2.31588,1.02121 5.38091,0.22071 9.19531,-2.40039 0.0341,0 0.0508,-0.0167 0.0508,-0.0508 0,-0.034 0.0187,-0.0508 0.0527,-0.0508 0.034,-0.034 0.0675,-0.0527 0.10156,-0.0527 0.0341,0 0.0508,-0.0167 0.0508,-0.0508 h 0.0508 c 4.15497,-2.92746 8.56659,-7.45478 13.23242,-13.582031 0.44275,-0.578684 1.14015,-1.479628 2.09375,-2.705078 -3.88251,16.952049 -3.98481,26.278459 -0.30664,27.980469 0.40869,0.20424 0.88478,0.30664 1.42969,0.30664 1.60069,0 3.61124,-1.0554 6.0293,-3.16602 0.0341,1.3e-4 0.0508,-0.0335 0.0508,-0.10156 l 0.0508,-0.0508 c 3.46757,-3.01481 7.89325,-8.24943 13.23242,-15.60156 -0.1142,1.23171 -0.17046,2.49828 -0.1543,3.80664 0.0341,2.1105 0.61245,3.91434 1.73633,5.41211 1.08983,1.46373 2.57217,2.43359 4.44531,2.91015 0.74938,0.17033 1.48207,0.25586 2.19727,0.25586 4.15497,0 8.37677,-2.09429 12.66797,-6.28125 0.9536,0.17021 1.83888,0.25586 2.65625,0.25586 2.72457,0 5.39908,-0.6981 8.02148,-2.09375 2.99514,-1.55514 5.73904,-3.93017 8.23438,-7.11718 -1.70568,9.93462 -1.65423,16.41978 0.19531,19.37109 0.74926,1.19141 1.73683,1.78711 2.96289,1.78711 h 0.10156 c 0.51086,0 1.1581,-0.11914 1.94141,-0.35742 0.13623,0 0.23853,-0.0167 0.30664,-0.0508 1.08983,-0.44253 2.57022,-2.16071 4.44336,-5.15625 0.79399,-1.24709 1.55987,-2.52408 2.30664,-3.81836 -0.20483,3.78252 0.50067,6.39337 2.13867,7.80078 1.60069,1.36161 3.45682,2.14341 5.56836,2.34765 h 0.0508 0.1543 c 0.10217,0.034 0.16907,0.0508 0.20313,0.0508 h 0.15429 0.35742 c 7.42011,0 18.41142,-7.97974 32.95313,-23.892582 -0.07,0.180625 -0.202,0.508649 -0.25977,0.660152 -0.13622,0.40849 -0.23657,0.73243 -0.30468,0.97071 h -0.0527 c -1.192,3.4721 -1.82056,6.97934 -1.88867,10.51953 -0.0681,3.54019 0.61257,6.51869 2.04297,8.93554 1.22606,1.80426 2.92776,2.70508 5.10742,2.70508 0.88549,0 1.89174,-0.32393 3.01563,-0.9707 0.13622,-0.0681 0.23852,-0.13504 0.30664,-0.20312 4.01874,-2.55314 9.17794,-8.81722 15.47851,-18.79102 0.34057,-0.54464 0.78321,-1.27623 1.32813,-2.19531 0.57897,-0.91909 0.95276,-1.51479 1.12304,-1.787112 1.70286,-2.893435 2.80946,-4.816404 3.32032,-5.769532 0.27245,-0.442523 0.17211,-0.799943 -0.30469,-1.072265 -0.27246,-0.170202 -0.5459,-0.153449 -0.81836,0.05078 -0.10217,0.06808 -0.18775,0.153738 -0.25586,0.255859 -1.02171,1.872215 -2.16176,3.828678 -3.42187,5.871094 v 0.05078 c -2.92904,4.867756 -5.96038,9.395076 -9.09376,13.582036 -3.13325,4.18695 -5.84121,7.01283 -8.12304,8.47656 -1.22606,0.10212 -2.11134,-0.2553 -2.65625,-1.07227 -1.32823,-1.97433 -1.10691,-6.02509 0.66406,-12.15234 1.80503,-6.12725 4.46086,-12.713432 7.96875,-19.759767 0.37463,-0.714846 0.83595,-1.634472 1.38086,-2.757813 0.57897,-1.157369 0.96949,-1.957867 1.17383,-2.40039 1.05577,-2.110497 1.77185,-3.573659 2.14648,-4.390625 0.40869,-0.851007 0.73231,-1.718469 0.97071,-2.603516 0.2384,-0.885047 0.25488,-1.514229 0.0508,-1.888672 -0.20435,-0.374443 -0.59681,-0.784039 -1.17578,-1.226562 -0.57898,-0.476564 -1.30983,-0.612445 -2.19532,-0.408203 -3.37165,0.919087 -7.93574,8.493825 -13.6914,22.722656 -0.007,0.02173 -0.15518,0.388064 -0.18555,0.466797 -15.94134,17.971475 -27.60085,26.816265 -34.96094,26.492185 h -0.15429 -0.10157 c -0.0341,0 -0.0675,-0.0167 -0.10156,-0.0508 h -0.0527 c -0.34058,-0.0681 -0.61207,-0.33984 -0.81641,-0.8164 -0.81737,-1.70202 -0.71507,-4.58007 0.30664,-8.63086 1.05577,-4.05079 2.99748,-8.42354 5.82422,-13.121098 1.22606,-0.408483 2.45168,-0.868303 3.67773,-1.378906 7.35635,-3.029596 13.31525,-6.637267 17.87891,-10.824219 4.59772,-4.220993 7.08436,-7.914334 7.45898,-11.080078 0.0681,-0.340403 0.0681,-0.6476 0,-0.919922 v -0.101563 -0.205078 c 0,-0.03404 -0.0167,-0.06752 -0.0508,-0.101562 v -0.05078 -0.05078 c -0.17028,-1.089288 -0.66505,-1.906528 -1.48242,-2.451172 -2.52023,-1.770094 -7.13449,-1.021771 -13.84375,2.246094 -7.56069,3.710389 -13.85993,9.412369 -18.90039,17.105469 -0.27246,0.408483 -0.6482,1.020924 -1.125,1.83789 -0.0681,0.136161 -0.4419,0.782072 -1.12305,1.939454 l -0.91992,1.685546 c -0.40868,0.816967 -0.92017,1.941379 -1.5332,3.371095 -0.0341,0.034 -0.0508,0.0843 -0.0508,0.15234 0,0.034 -0.0167,0.0675 -0.0508,0.10156 -0.10218,0.10213 -0.1543,0.23801 -0.1543,0.40821 -0.13623,0.30636 -0.30542,0.76618 -0.50977,1.3789 -0.034,0.17021 -0.1029,0.40849 -0.20507,0.71485 -0.13623,0.30636 -0.23853,0.5279 -0.30664,0.66406 -0.23853,0.68081 -0.37415,1.12388 -0.40821,1.32812 -0.20434,0.61285 -0.34009,1.07255 -0.4082,1.37891 l -0.1543,0.61133 c -0.0681,0.23828 -0.11828,0.42634 -0.15234,0.5625 -0.0108,0.0322 -0.0206,0.12853 -0.0312,0.17773 -1.05712,2.06836 -2.16145,4.13673 -3.33985,6.20508 -1.39634,2.4509 -2.64064,4.27148 -3.73046,5.46289 -1.08983,1.22545 -1.92299,1.59961 -2.50196,1.12305 -1.70286,-1.83817 -0.71528,-10.90956 2.96289,-27.214843 2.24778,-10.041878 5.32952,-20.235744 9.2461,-30.583985 2.04343,-0.442523 5.1773,-1.176057 9.40039,-2.197265 0.0681,-0.03404 0.18713,-0.06752 0.35742,-0.101563 3.43977,-0.816966 6.70939,-1.565288 9.80859,-2.246094 3.13326,-0.714845 6.33403,-1.379462 9.60352,-1.992187 3.26949,-0.612725 6.26566,-1.037109 8.99023,-1.275391 2.75863,-0.272322 5.2974,-0.35798 7.61328,-0.255859 2.34995,0.06808 4.3251,0.458982 5.92579,1.173828 1.63474,0.714846 2.79151,1.720142 3.47265,3.013672 0.2384,0.476564 0.59547,0.595704 1.07227,0.357422 0.4768,-0.272322 0.59777,-0.629742 0.35937,-1.072266 -0.0681,-0.136161 -0.15369,-0.290736 -0.25586,-0.460937 -2.52023,-4.084832 -9.26406,-5.462336 -20.23047,-4.134766 -5.41508,0.646765 -14.45769,2.467347 -27.12695,5.462891 -3.26949,0.782926 -6.04434,1.430802 -8.32617,1.941406 2.8608,-7.352697 5.82353,-13.991057 8.88867,-19.914063 0.37463,-0.612724 0.34118,-1.260601 -0.10156,-1.941406 -0.37463,-0.646765 -0.93629,-0.96875 -1.68555,-0.96875 -1.70286,0 -2.9137,0.781804 -3.6289,2.347656 -3.03109,6.535731 -5.99382,13.75305 -8.88868,21.650391 -12.05623,2.484939 -19.49735,2.773442 -22.32422,0.867188 -0.88548,-0.612737 -1.39502,-1.446705 -1.53124,-2.501954 -0.0341,-0.204241 -0.13636,-0.373604 -0.30665,-0.509765 -0.20434,-0.136161 -0.40893,-0.188337 -0.61328,-0.154297 -0.51085,0.06808 -0.73217,0.358537 -0.66406,0.86914 0.20434,1.497784 0.95388,2.689172 2.24805,3.574219 1.60068,1.089289 4.05192,1.632813 7.35547,1.632813 3.54194,0 8.59884,-0.662664 15.17187,-1.990235 -4.4088,12.363892 -7.58961,23.635183 -9.57617,33.84375 -2.7903,4.28569 -5.94614,7.41646 -9.47852,9.35352 h -0.0508 c -2.48617,1.0212 -4.93741,1.15708 -7.35547,0.4082 2.24778,-2.68918 4.30655,-5.78682 6.17969,-9.29297 1.9072,-3.472107 3.21839,-6.722369 3.93359,-9.751953 0.71533,-3.029583 0.93652,-5.514783 0.66407,-7.455078 -0.2384,-1.974335 -0.83351,-3.659037 -1.78711,-5.054687 l -0.10156,-0.205079 c -0.51086,-0.714845 -1.17482,-1.344027 -1.99219,-1.888671 -1.15795,-0.782926 -2.50454,-1.226005 -4.03711,-1.328125 h -0.15234 -0.10157 c -2.34994,-0.06808 -4.88871,0.696982 -7.61328,2.296875 -2.69051,1.565852 -5.39847,4.051051 -8.12305,7.455078 -1.4304,1.804134 -2.46814,3.676892 -3.11523,5.617187 -3.53501,3.603927 -5.81943,7.94276 -6.85937,13.013673 -6.03179,8.52867 -10.9401,14.4893 -14.69922,17.82617 -0.0341,0 -0.0675,0.0167 -0.10157,0.0508 -0.88548,0.74889 -1.58484,0.93694 -2.0957,0.5625 -0.40869,-0.27232 -0.73035,-0.86802 -0.96875,-1.78711 -0.2384,-0.88505 -0.35937,-2.28124 -0.35937,-4.1875 0.034,-1.94029 0.23865,-4.22069 0.61328,-6.84179 0.37463,-2.65527 1.03858,-6.04129 1.99218,-10.16016 0.98766,-4.152913 2.24868,-8.715668 3.78125,-13.685547 21.96687,-29.887353 31.57113,-48.404279 28.8125,-55.552734 0,-0.102133 -0.0167,-0.171038 -0.0508,-0.205079 v -0.05078 l -0.0508,-0.05078 c -0.78331,-1.736054 -1.94204,-2.570034 -3.47461,-2.501953 -2.34994,0.170201 -5.31267,2.722364 -8.88867,7.658203 -3.54194,4.901798 -7.15191,11.337312 -10.83008,19.302734 -3.64411,7.931382 -6.86356,16.304665 -9.65625,25.121094 0,-0.03404 -0.0167,-0.06752 -0.0508,-0.101563 v -0.05273 -0.05078 c -0.20434,-1.463732 -0.766,-2.483816 -1.68555,-3.0625 -1.70285,-1.123329 -4.80133,-0.494147 -9.29687,1.888672 -3.37166,1.770094 -6.62456,4.476832 -9.75781,8.11914 -3.13326,3.608268 -5.70547,7.43749 -7.71485,11.488282 -0.6565,1.346286 -1.23018,2.661285 -1.73633,3.951171 -0.7267,1.18781 -1.40914,2.29052 -1.9414,3.09571 -7.22012,10.96096 -13.48591,17.46149 -18.79883,19.5039 h -0.0508 c -0.10217,0.034 -0.18775,0.0508 -0.25586,0.0508 -1.08983,-0.88504 0.49286,-8.27173 4.75,-22.160155 1.53257,-5.003919 3.72904,-11.897299 6.58984,-20.679688 0.17029,-0.510604 0.42701,-1.309149 0.76758,-2.398437 0.34057,-1.123329 0.59534,-1.940568 0.76563,-2.451172 h 0.0508 c 4.15497,-12.86722 6.59144,-20.663498 7.30664,-23.386719 0.54491,-2.110496 0.98755,-4.510026 1.32812,-7.199219 0.37463,-2.723221 0.40808,-5.820861 0.10157,-9.292968 -0.27246,-3.472107 -1.09084,-6.093176 -2.45313,-7.863282 -1.22606,-1.599892 -2.84219,-2.450613 -4.85156,-2.552734 -0.10217,-0.03404 -0.2566,-0.05078 -0.46094,-0.05078 z m -0.20312,1.582031 h 0.20312 c 0.61303,0.03404 1.09107,0.307744 1.43164,0.81836 0.54492,0.748885 0.84986,1.90485 0.91797,3.470703 0.10217,1.531812 -0.0336,3.490216 -0.4082,5.873047 -0.37463,2.348778 -0.83399,4.781801 -1.37891,7.300781 -0.51086,2.484939 -1.24366,5.46344 -2.19726,8.935547 -0.9536,3.438066 -1.85561,6.571142 -2.70704,9.396484 -0.81737,2.791302 -1.82167,6.127222 -3.01367,10.007812 -3.16731,-0.06808 -9.50196,0.544361 -19.0039,1.837891 -7.28823,0.987168 -12.51628,1.599609 -15.6836,1.837891 3.78035,-6.39957 7.61163,-12.45897 11.49414,-18.177735 3.88252,-5.752804 7.7138,-10.994965 11.49414,-15.726562 3.8144,-4.765637 7.37419,-8.544636 10.67774,-11.335938 3.30354,-2.825342 6.02823,-4.238281 8.17383,-4.238281 z m 68.8125,2.65625 c 0.0681,0 0.13501,0.03348 0.20312,0.101563 l 0.0508,0.05078 c 2.65646,6.195328 -5.96023,23.0108 -25.84961,50.447266 l 0.30664,-0.917969 c 1.97532,-6.025127 4.07145,-11.760589 6.28516,-17.207031 2.21371,-5.480495 4.27249,-10.126944 6.17969,-13.939454 1.9072,-3.812509 3.72988,-7.14843 5.46679,-10.007812 1.77098,-2.859382 3.27004,-4.970421 4.4961,-6.332031 1.26011,-1.395651 2.21424,-2.127232 2.86133,-2.195313 z m 10.21679,46.720703 h 0.0508 c 1.46446,0 2.67336,0.321985 3.62696,0.96875 0.61303,0.408483 1.14124,0.93722 1.58398,1.583985 0.57897,0.953127 0.57897,2.995248 0,6.126953 -0.54491,3.097664 -1.63479,6.500548 -3.26953,10.210937 -2.1456,4.867758 -4.75126,9.106574 -7.81641,12.714844 -0.0681,-0.034 -0.15368,-0.0843 -0.25585,-0.15234 -0.1023,-0.10212 -0.18775,-0.17104 -0.25586,-0.20508 -1.9072,-1.42969 -3.45644,-3.25028 -4.64844,-5.462892 -1.192,-2.21263 -1.87268,-4.493019 -2.04297,-6.841797 1.02171,-0.953128 1.6001,-1.481864 1.73633,-1.583985 1.192,-0.919087 1.92481,-2.110487 2.19726,-3.574218 0.27246,-1.463744 0.0846,-2.638391 -0.5625,-3.523438 -0.20434,-0.306362 -0.45911,-0.561383 -0.76562,-0.765625 1.46446,-2.382819 3.25174,-4.510586 5.36328,-6.382813 2.1456,-1.872214 3.83254,-2.909039 5.05859,-3.113281 z m 66.39258,1.044922 c 0.12346,0 0.23056,0.01032 0.32422,0.02734 v 0.560547 c -0.30651,2.689181 -2.62201,6.04183 -6.94727,10.058594 -4.2912,3.98271 -10.09763,7.489947 -17.41992,10.519531 l -1.68554,0.611328 c 1.4304,-2.178577 2.79176,-4.04937 4.08593,-5.615235 2.11155,-2.6211 4.24112,-4.953677 6.38672,-6.996093 2.17966,-2.076456 4.08584,-3.6755 5.72071,-4.798828 1.63474,-1.157369 3.16725,-2.093749 4.59765,-2.808594 1.46446,-0.714846 2.60646,-1.157924 3.42383,-1.328125 0.63857,-0.153181 1.1433,-0.230469 1.51367,-0.230469 z m -109.66992,1.263672 c 0.0809,0.0011 0.15134,0.01353 0.21094,0.03906 h 0.0508 v 0.05078 c 0.17028,0.987167 0.18932,2.638387 0.0527,4.953125 -0.10217,0.306362 -0.23987,0.74944 -0.41015,1.328125 -0.13623,0.578684 -0.23853,0.986327 -0.30664,1.224609 -0.64709,2.450899 -1.25892,4.800218 -1.83789,7.046875 -0.30664,0.408483 -0.9872,1.292686 -2.04297,2.654297 -1.02172,1.361611 -1.75453,2.333425 -2.19727,2.912109 -4.69989,6.161295 -9.0761,10.619695 -13.12891,13.376955 -2.11154,1.15737 -3.52503,1.34543 -4.24023,0.5625 -0.78331,-0.88504 -0.73314,-2.74106 0.15234,-5.5664 0.88549,-2.85939 2.63932,-6.195311 5.26172,-10.00782 2.58835,-3.77847 5.31303,-7.183307 8.17383,-10.212891 2.8608,-3.063624 5.19497,-5.258367 7,-6.585937 1.6092,-1.19141 2.69552,-1.782837 3.26172,-1.775391 z m 24.88672,22.658203 c 0.27246,0.680805 0.49377,1.192802 0.66406,1.533202 1.83909,3.88059 4.71624,6.72321 8.63281,8.52734 -3.0992,2.82547 -6.31669,4.78181 -9.65429,5.8711 -0.20435,-0.034 -0.47779,-0.0843 -0.81836,-0.15234 -0.98766,-0.23841 -1.83949,-0.66462 -2.55469,-1.27735 -0.98766,-1.02121 -1.4303,-2.36523 -1.32813,-4.0332 0.20435,-2.82534 1.89128,-6.31584 5.0586,-10.468752 z"
     style="font-style:normal;font-variant:normal;font-weight:normal;font-stretch:normal;font-size:298.30685425px;line-height:1.25;font-family:'Edline Demo';-inkscape-font-specification:'Edline Demo';letter-spacing:0px;word-spacing:0px;fill:#000000;fill-opacity:1;stroke:none;stroke-width:2.6149404"
     transform="matrix(2.8519467,0,0,2.8519467,-427.792,0)"
     id="text2472" /><g
     transform="matrix(1.5355213,0,0,1.5355213,771.50794,168.37327)"
     id="g1775"
     style="fill:#000000"><g
       transform="rotate(22.123446,5.2662516,18.218548)"
       style="fill:#000000"
       clip-path="url(#clip0)"
       id="g1758"><path
         style="fill:#000000"
         inkscape:connector-curvature="0"
         d="m 11,9.62506 c -3.41213,0 -8.24998,5.27484 -8.24998,8.60454 0,1.4996 1.152,2.3955 3.08258,2.3955 2.0986,0 3.48434,-1.0777 5.1674,-1.0777 1.6977,0 3.0873,1.0777 5.1674,1.0777 1.9306,0 3.0826,-0.8959 3.0826,-2.3955 0,-3.3297 -4.8378,-8.60454 -8.25,-8.60454 z M 4.67159,9.08322 C 4.22471,7.59436 2.84799,6.63014 1.59674,6.9292 0.345493,7.22826 -0.306343,8.6776 0.140532,10.1665 0.587407,11.6553 1.96413,12.6196 3.21538,12.3205 4.46663,12.0214 5.11846,10.5721 4.67159,9.08322 Z M 8.3119,8.19033 C 9.64135,7.84057 10.3065,6.04447 9.79776,4.17877 9.28901,2.31307 7.79885,1.08459 6.4694,1.43436 5.13995,1.78412 4.47479,3.58021 4.98354,5.44592 5.49229,7.31162 6.98288,8.54053 8.3119,8.19033 Z m 12.091,-1.2607 c -1.2513,-0.29906 -2.6276,0.66516 -3.0749,2.15402 -0.4468,1.48885 0.205,2.93825 1.4562,3.23725 1.2513,0.2991 2.6276,-0.6651 3.0749,-2.154 0.4469,-1.48887 -0.205,-2.93821 -1.4562,-3.23727 z m -6.7148,1.2607 C 15.0176,8.5401 16.5078,7.31162 17.0165,5.44592 17.5253,3.58021 16.8601,1.78455 15.5306,1.43436 14.2012,1.08416 12.711,2.31307 12.2023,4.17877 c -0.5088,1.8657 0.1564,3.6618 1.4858,4.01156 z"
         id="path1756" /></g></g></g></svg>